<svg xmlns="http://www.w3.org/2000/svg" viewBox="0 0 400 400" role="img" aria-label="Amoxicillin">
  <defs>
    <linearGradient id="bg" x1="0" y1="0" x2="1" y2="1">
      <stop offset="0" stop-color="#dcfce7"/>
      <stop offset="1" stop-color="#bbf7d0"/>
    </linearGradient>
  </defs>
  <rect width="400" height="400" fill="url(#bg)"/>
  <circle cx="340" cy="60" r="70" fill="#fff" fill-opacity="0.25"/>
  <circle cx="50" cy="360" r="60" fill="#fff" fill-opacity="0.2"/>
  <ellipse cx="200" cy="348" rx="125" ry="14" fill="rgba(15,23,42,0.13)"/>
  <rect x="105" y="85" width="190" height="255" rx="14" fill="#fff" stroke="#e2e8f0" stroke-width="2"/>
  <rect x="105" y="85" width="190" height="64" rx="14" fill="#16a34a"/>
  <rect x="105" y="125" width="190" height="24" fill="#16a34a"/>
  <text x="200" y="124" text-anchor="middle" font-family="Inter, Arial, Helvetica, sans-serif" font-size="17" font-weight="700" letter-spacing="2" fill="#fff">MEDICARE</text>
  <text x="200" y="190" text-anchor="middle" font-family="Inter, Arial, Helvetica, sans-serif" font-size="24" font-weight="700" fill="#0f172a">Amoxicillin</text>
  <rect x="145" y="222" width="110" height="30" rx="15" fill="#16a34a" fill-opacity="0.12"/>
  <text x="200" y="243" text-anchor="middle" font-family="Inter, Arial, Helvetica, sans-serif" font-size="15" font-weight="600" fill="#16a34a">500 mg</text>
  <g transform="rotate(-30 200 308)"><rect x="170" y="296" width="60" height="24" rx="12" fill="#16a34a"/><path d="M200 296 H218 a12 12 0 0 1 0 24 H200 Z" fill="#fff" stroke="#16a34a" stroke-width="2"/></g>
  <g><rect x="253" y="95" width="34" height="34" rx="9" fill="#b91c1c"/><text x="270" y="119" text-anchor="middle" font-family="Inter, Arial, Helvetica, sans-serif" font-size="17" font-weight="800" fill="#fff">Rx</text></g>
</svg>
